<svg width="0" height="0" class="hidden">
    <symbol
            fill="none"
            xmlns="http://www.w3.org/2000/svg"
            viewBox="0 0 512 512"
            id="pause-btn">
        <path style="fill:#FFC61B;" d="M219.835,512H43.489c-7.855,0-14.222-6.367-14.222-14.222s6.367-14.222,14.222-14.222h162.125V28.444
        	H57.712v412.444c0,7.855-6.367,14.222-14.222,14.222s-14.222-6.367-14.222-14.222V14.222C29.267,6.367,35.634,0,43.489,0h176.347
        	c7.855,0,14.222,6.367,14.222,14.222v483.556C234.057,505.633,227.69,512,219.835,512z"/>
        <rect x="100.38" y="71.111" style="fill:#FEE187;" width="62.569" height="369.778"/>
        <g>
        	<path style="fill:#FFC61B;" d="M162.946,455.111h-62.568c-7.855,0-14.222-6.367-14.222-14.222V71.111
        		c0-7.855,6.367-14.222,14.222-14.222h62.569c7.855,0,14.222,6.367,14.222,14.222v369.778
        		C177.168,448.744,170.801,455.111,162.946,455.111z M114.601,426.667h34.125V85.333h-34.125V426.667z"/>
        	<path style="fill:#FFC61B;" d="M468.509,512H292.164c-7.855,0-14.222-6.367-14.222-14.222s6.367-14.222,14.222-14.222h162.125
        		V28.444H306.386v412.444c0,7.855-6.367,14.222-14.222,14.222c-7.855,0-14.222-6.367-14.222-14.222V14.222
        		C277.941,6.367,284.309,0,292.164,0h176.347c7.855,0,14.222,6.367,14.222,14.222v483.556C482.731,505.633,476.364,512,468.509,512z
        		"/>
        </g>
        <rect x="349.055" y="71.111" style="fill:#FEE187;" width="62.569" height="369.778"/>
        <path style="fill:#FFC61B;" d="M411.62,455.111h-62.569c-7.855,0-14.222-6.367-14.222-14.222V71.111
        	c0-7.855,6.367-14.222,14.222-14.222h62.569c7.855,0,14.222,6.367,14.222,14.222v369.778
        	C425.842,448.744,419.475,455.111,411.62,455.111z M363.275,426.667h34.125V85.333h-34.125V426.667z"/>
        <g>
        </g>
        <g>
        </g>
        <g>
        </g>
        <g>
        </g>
        <g>
        </g>
        <g>
        </g>
        <g>
        </g>
        <g>
        </g>
        <g>
        </g>
        <g>
        </g>
        <g>
        </g>
        <g>
        </g>
        <g>
        </g>
        <g>
        </g>
        <g>
        </g>
    </symbol>
    <symbol
        fill="none" 
        xmlns="http://www.w3.org/2000/svg"
        viewBox="0 0 512.001 512.001"
        id="play-btn"
    >
        <path style="fill:#FFC61B;" d="M49.106,512.001c-5.425,0-10.702-2.807-13.623-7.836c-4.362-7.515-1.806-17.144,5.707-21.507
        	L431.574,256L64.824,43.063v336.659c0,8.69-7.046,15.734-15.734,15.734s-15.734-7.044-15.734-15.734V15.735
        	c0-5.628,3.005-10.828,7.884-13.637c4.876-2.807,10.882-2.798,15.751,0.03l413.821,240.265c4.849,2.816,7.834,7.999,7.834,13.607
        	c0,5.608-2.983,10.79-7.834,13.607L56.992,509.87C54.506,511.315,51.787,512.001,49.106,512.001z"/>
        <polygon style="fill:#FEE187;" points="114.873,132.274 335.607,256 114.873,379.724 "/>
        <path style="fill:#FFC61B;" d="M114.873,395.459c-2.75,0-5.499-0.721-7.954-2.159c-4.819-2.823-7.781-7.991-7.781-13.575V132.274
        	c0-5.586,2.961-10.753,7.781-13.575c4.818-2.823,10.775-2.882,15.646-0.149l220.734,123.725c4.966,2.783,8.04,8.032,8.04,13.725
        	s-3.074,10.942-8.04,13.725L122.565,393.45C120.175,394.789,117.522,395.459,114.873,395.459z M130.607,159.131v193.738L303.428,256
        	L130.607,159.131z"/>
        <g>
        </g>
        <g>
        </g>
        <g>
        </g>
        <g>
        </g>
        <g>
        </g>
        <g>
        </g>
        <g>
        </g>
        <g>
        </g>
        <g>
        </g>
        <g>
        </g>
        <g>
        </g>
        <g>
        </g>
        <g>
        </g>
        <g>
        </g>
        <g>
        </g>
    </symbol>
</svg>
